Grateful Dead - April 23, 1969
The Ark - Boston, MA

Recording Info:
SBD -> Master Reel -> Cassette -> Dat -> CD

Transfer Info:
CD -> Samplitude Professional v9.12 -> FLAC
(3 Discs Audio / 2 Discs FLAC)

All Transfers and Mastering By Charlie Miller
charliemiller87@earthlink.net
November 14, 2007

Notes:
-- Seamless disc change between discs 2 and 3
-- Brutal tape flip between St. Stephen and It's A Sin
-- Tape flip during The Eleven
-- Tape flip between Caution and Feedback

Set 1:
d1t01 - Introduction
d1t02 - He Was A Friend Of Mine
d1t03 - Dark Star ->
d1t04 - St. Stephen ->
d1t05 - It's A Sin ->
d1t06 - St. Stephen ->
d1t07 - Cryptical Envelopment ->
d1t08 - Drums ->
d1t09 - The Other One ->
d1t10 - Cryptical Envelopment ->
d1t11 - Sittin' On Top Of The World ->
d1t12 - Turn On Your Lovelight

Set 2:
d2t01 - Morning Dew
d2t02 - Hard To Handle
d2t03 - Doin' That Rag
d2t04 - Alligator ->
d2t05 - Drums ->
d2t06 - Jam ->
d2t07 - The Eleven ->
d2t08 - Caution (Do Not Stop On Tracks) ->
d2t09 - Feedback ->
d2t10 - And We Bid You Good Night

Encore:
d3t01 - Not Fade Away tease
d3t02 - It's All Over Now, Baby Blue


SHNTOOL OUTPUT:
    length     expanded size   cdr  WAVE problems filename
     0:38.74        6877292    ---   --   -----   gd69-04-23d1t01.wav
    11:33.68      122405180    ---   --   -----   gd69-04-23d1t02.wav
    20:55.71      221549036    ---   --   -----   gd69-04-23d1t03.wav
     1:37.19       17155532    ---   --   -----   gd69-04-23d1t04.wav
     2:06.68       22386380    ---   --   -----   gd69-04-23d1t05.wav
     2:12.59       23423612    ---   --   -----   gd69-04-23d1t06.wav
     1:57.25       20697644    ---   --   -----   gd69-04-23d1t07.wav
     0:44.66        7916876    ---   --   -----   gd69-04-23d1t08.wav
     8:38.66       91530476    ---   --   -----   gd69-04-23d1t09.wav
     6:23.20       67608284    ---   --   -----   gd69-04-23d1t10.wav
     2:58.35       31481564    ---   --   -----   gd69-04-23d1t11.wav
    18:27.31      195347756    ---   --   -----   gd69-04-23d1t12.wav
    10:12.38      108046220    ---   --   -----   gd69-04-23d2t01.wav
     6:18.07       66695708    ---   --   -----   gd69-04-23d2t02.wav
     7:18.49       77378492    ---   --   -----   gd69-04-23d2t03.wav
     3:49.64       40546172    ---   --   -----   gd69-04-23d2t04.wav
     4:53.24       51741692    ---   --   -----   gd69-04-23d2t05.wav
     3:17.43       34851980    ---   --   -----   gd69-04-23d2t06.wav
    17:18.65      183256124    ---   --   -----   gd69-04-23d2t07.wav
    12:49.65      135804524    ---   --   -----   gd69-04-23d2t08.wav
     2:50.00       29988044    ---   --   -----   gd69-04-23d2t09.wav
     6:47.70       71959484    ---   --   -----   gd69-04-23d2t10.wav
     1:33.64       16555772    ---   --   -----   gd69-04-23d3t01.wav
     8:51.52       93790748    ---   --   -----   gd69-04-23d3t02.wav
   164:18.18     1738994592 B                     (totals for 24 files)
